<?xml version="1.0" encoding="UTF-8"?>
<svg id="a" data-name="Layer 1" xmlns="http://www.w3.org/2000/svg" width="512" height="512" viewBox="0 0 512 512">
  <path d="M281.68,253.14c-.79,3.21-1.55,6.52-2.28,9.88-.17.82-.99,1.2-1.76.8-3.69-1.77-7.62-3.65-11.79-5.61-.9-.4-.92-1.14,0-1.56,4.57-2.15,9.43-3.72,14.41-4.64,1.01-.19,1.63.34,1.44,1.12M259.35,245.46c-.79,3.23-1.57,6.52-2.25,9.88-.19.8-.97,1.2-1.76.8-3.71-1.79-7.64-3.67-11.81-5.61-.9-.42-.92-1.14,0-1.56,4.55-2.15,9.38-3.74,14.41-4.62.99-.19,1.65.32,1.42,1.12ZM252.35,276.26c-.17.82-.94,1.16-1.74.82-3.69-1.77-7.6-3.67-11.79-5.61-.9-.42-.9-1.14,0-1.56,4.55-2.17,9.4-3.74,14.41-4.67.99-.17,1.65.36,1.44,1.14-.82,3.21-1.57,6.52-2.32,9.88ZM235.91,241.7c-.82,3.19-1.59,6.5-2.3,9.86-.17.84-.94,1.2-1.76.84-3.69-1.82-7.6-3.67-11.79-5.62-.92-.42-.94-1.14-.04-1.56,4.57-2.17,9.43-3.74,14.43-4.64.99-.15,1.63.36,1.42,1.14M231.16,262.03c-.79,3.19-1.57,6.48-2.3,9.86-.17.84-.97,1.2-1.76.84-3.69-1.79-7.62-3.67-11.79-5.64-.9-.42-.9-1.14,0-1.56,4.57-2.15,9.4-3.72,14.43-4.62.99-.19,1.63.34,1.44,1.14M226.52,282.82c-.82,3.21-1.59,6.5-2.3,9.86-.17.82-.97,1.2-1.76.82-3.69-1.77-7.6-3.69-11.79-5.64-.9-.42-.92-1.14,0-1.56,4.57-2.15,9.4-3.74,14.41-4.64.99-.19,1.65.34,1.44,1.14M209.26,251.08c-.15.82-.94,1.2-1.72.82-3.71-1.79-7.62-3.67-11.81-5.61-.9-.42-.92-1.12,0-1.56,4.57-2.17,9.43-3.74,14.43-4.64.99-.17,1.61.34,1.44,1.14-.84,3.19-1.59,6.48-2.32,9.86M206.92,261.36c-.79,3.23-1.57,6.48-2.28,9.88-.21.8-.97,1.18-1.78.8-3.69-1.77-7.62-3.67-11.79-5.59-.9-.42-.9-1.14,0-1.56,4.55-2.17,9.4-3.74,14.43-4.64,1.01-.17,1.65.36,1.44,1.14M202.39,281.87c-.79,3.23-1.57,6.48-2.28,9.88-.17.8-.97,1.18-1.74.8-3.71-1.77-7.62-3.67-11.81-5.61-.88-.42-.92-1.14,0-1.54,4.57-2.17,9.38-3.76,14.43-4.66.99-.17,1.63.36,1.42,1.14M183.28,253.86c-3.71-1.77-7.64-3.67-11.81-5.59-.88-.42-.9-1.16,0-1.58,4.57-2.15,9.43-3.72,14.45-4.62.97-.17,1.61.34,1.42,1.14-.82,3.21-1.57,6.5-2.3,9.88-.19.8-.97,1.18-1.74.8M182.59,263.72c-.82,3.19-1.57,6.48-2.28,9.88-.17.84-.97,1.18-1.76.8-3.71-1.75-7.6-3.67-11.79-5.59-.92-.44-.94-1.14-.04-1.56,4.57-2.17,9.43-3.74,14.43-4.64.99-.15,1.63.36,1.42,1.12M178,284.39c-.82,3.21-1.57,6.48-2.3,9.88-.17.82-.94,1.18-1.74.82-3.71-1.77-7.62-3.67-11.81-5.61-.9-.42-.92-1.14-.04-1.56,4.59-2.17,9.43-3.76,14.45-4.64.99-.17,1.63.36,1.44,1.12ZM158.48,257.98c-3.71-1.77-7.62-3.67-11.79-5.62-.9-.4-.94-1.1-.04-1.56,4.57-2.17,9.4-3.72,14.43-4.64.99-.17,1.63.34,1.44,1.14-.79,3.19-1.59,6.48-2.3,9.86-.15.84-.97,1.2-1.74.82ZM155.22,278.79c-.17.82-.94,1.18-1.74.82-3.69-1.79-7.62-3.67-11.79-5.64-.88-.4-.92-1.12,0-1.54,4.57-2.2,9.43-3.76,14.41-4.64.99-.17,1.65.34,1.44,1.14-.82,3.21-1.59,6.5-2.32,9.86ZM150.52,299.46c-.17.82-.94,1.18-1.74.82-3.71-1.79-7.6-3.67-11.79-5.61-.9-.4-.94-1.14-.02-1.56,4.57-2.17,9.43-3.74,14.43-4.62.99-.17,1.63.34,1.44,1.14-.84,3.19-1.59,6.5-2.32,9.86M135.72,262.73c-.17.82-.94,1.2-1.74.82-3.71-1.77-7.62-3.63-11.81-5.61-.88-.38-.94-1.12,0-1.54,4.57-2.17,9.4-3.69,14.43-4.64,1.01-.19,1.63.36,1.44,1.14-.82,3.19-1.59,6.48-2.3,9.84M132.85,275.41c-.82,3.21-1.59,6.5-2.3,9.86-.19.8-.97,1.2-1.76.8-3.69-1.77-7.62-3.67-11.79-5.62-.9-.4-.92-1.12,0-1.56,4.55-2.15,9.4-3.71,14.41-4.64.99-.17,1.65.36,1.44,1.14M128.1,296.71c-.79,3.21-1.57,6.48-2.28,9.84-.17.82-.94,1.2-1.76.82-3.69-1.77-7.6-3.65-11.79-5.64-.9-.4-.92-1.12-.04-1.54,4.57-2.17,9.4-3.74,14.45-4.64.97-.19,1.63.34,1.42,1.14M109.55,270.18c-3.71-1.77-7.62-3.67-11.81-5.59-.88-.42-.9-1.16,0-1.56,4.57-2.15,9.43-3.74,14.43-4.66,1.01-.17,1.65.34,1.44,1.14-.84,3.21-1.59,6.5-2.3,9.86-.17.82-.94,1.2-1.74.8M108.58,281.22c-.82,3.23-1.59,6.52-2.3,9.88-.19.8-.94,1.2-1.74.8-3.71-1.77-7.62-3.65-11.79-5.61-.9-.4-.92-1.12-.04-1.56,4.57-2.15,9.4-3.72,14.41-4.64,1.01-.19,1.68.36,1.44,1.14M87.24,271.05c-.19.84-.97,1.18-1.76.84-3.71-1.82-7.62-3.67-11.79-5.64-.9-.42-.92-1.12,0-1.58,4.57-2.15,9.43-3.72,14.43-4.62.97-.19,1.61.34,1.42,1.1-.82,3.23-1.57,6.52-2.3,9.88M82.52,291.71c-.17.82-.97,1.2-1.76.82-3.69-1.77-7.6-3.69-11.79-5.61-.9-.44-.92-1.14-.02-1.58,4.57-2.13,9.43-3.72,14.43-4.64.99-.17,1.63.36,1.44,1.12-.82,3.21-1.59,6.5-2.32,9.88M59.82,251.79c-.88-.4-.9-1.14,0-1.54,4.57-2.2,9.4-3.76,14.43-4.67.97-.17,1.61.36,1.44,1.14-.82,3.19-1.59,6.5-2.3,9.88-.17.82-.97,1.18-1.76.8-3.69-1.77-7.6-3.65-11.81-5.62ZM61.07,280.82c-.17.82-.97,1.18-1.76.8-3.71-1.77-7.62-3.65-11.81-5.61-.88-.4-.92-1.14-.02-1.56,4.57-2.17,9.43-3.74,14.43-4.62,1.01-.19,1.65.32,1.46,1.1-.84,3.23-1.59,6.52-2.32,9.88M35.41,257.09c-.88-.42-.92-1.14,0-1.56,4.55-2.17,9.43-3.74,14.43-4.66.99-.17,1.63.34,1.44,1.12-.82,3.21-1.59,6.52-2.32,9.88-.17.82-.94,1.2-1.74.82-3.69-1.79-7.62-3.67-11.79-5.59M32.88,235.88c4.59-2.15,9.45-3.72,14.45-4.64.99-.21,1.63.34,1.42,1.12-.82,3.21-1.59,6.5-2.3,9.86-.19.84-.97,1.22-1.76.82-3.71-1.79-7.62-3.67-11.81-5.61-.88-.4-.9-1.12,0-1.56M38.55,216.37c4.57-2.17,9.4-3.72,14.41-4.62.99-.19,1.63.34,1.44,1.1-.82,3.23-1.59,6.52-2.3,9.88-.17.82-.97,1.22-1.76.82-3.69-1.79-7.6-3.67-11.79-5.64-.88-.4-.9-1.12,0-1.54ZM53.53,199.44c4.55-2.17,9.4-3.74,14.43-4.64.99-.19,1.63.34,1.42,1.12-.79,3.21-1.57,6.48-2.28,9.86-.17.82-.97,1.2-1.76.82-3.71-1.77-7.62-3.67-11.79-5.61-.9-.42-.92-1.12,0-1.56M73.37,227.47c-.82,3.21-1.59,6.48-2.3,9.86-.17.82-.94,1.22-1.74.82-3.71-1.77-7.62-3.67-11.79-5.62-.88-.4-.9-1.12,0-1.56,4.57-2.15,9.45-3.71,14.43-4.62.97-.17,1.63.34,1.42,1.12M82.54,208.75c1.01-.17,1.65.34,1.44,1.14-.79,3.21-1.59,6.5-2.3,9.86-.17.82-.92,1.2-1.72.82-3.71-1.79-7.62-3.65-11.79-5.62-.9-.4-.94-1.14-.02-1.56,4.55-2.17,9.4-3.74,14.41-4.62M73.18,186.48c4.57-2.15,9.4-3.74,14.43-4.64.99-.17,1.63.36,1.44,1.14-.82,3.21-1.59,6.48-2.3,9.86-.17.84-.94,1.2-1.74.82-3.71-1.77-7.62-3.67-11.79-5.61-.9-.42-.94-1.14,0-1.56M95.08,176.37c4.57-2.17,9.4-3.72,14.43-4.64.99-.17,1.63.36,1.42,1.12-.82,3.21-1.59,6.5-2.28,9.86-.17.84-.97,1.22-1.76.84-3.71-1.79-7.62-3.67-11.79-5.61-.88-.4-.92-1.14,0-1.56M371.28,236.47c6.66,0,10.76,5.02,11.51,7.3,0,0-10,2.17-14.36,3.08-2.86.59-4.7-.59-5-2.79-.36-2.45,2.3-7.62,7.86-7.58M395.99,237.25c1.03-2.58,3.18-4.33,5.39-4.33,3.97,0,5.88,4.26,5.86,5.57l-9.6,2.11c-2.68.51-2.62-.93-1.67-3.34M503.75,316.96c-4.12-2.55-7.73-2.87-11.49-3.99-5.11-1.52-6.72-7.66-8.61-8.38-3.82-1.44-7.32,4.29-9.64,3.53-2.32-.72-3.26-8.25-5.13-8.95-3.67-1.35-7.64,4.39-9.96,3.65-2.3-.72-3.54-8.15-5.43-8.82-3.82-1.39-7.77,4.6-10.07,3.84-2.32-.74-2.96-8.44-4.85-9.14-4.08-1.52-7.84,4.58-11.44,4.03-2.3-.36-7.32-1.18-13.93-5.53-1.89-1.25-5.82-4.35-6.12-4.45-.67-.25-2.36-.68-1.95,2.68.97,7.85,14.71,13.49,30.51,17.99,15.78,4.48,31.78,8.8,41.31,13.13,5.9,2.68,8.44,5.87,6.31,8.97-1.65,2.41-5.69,2.58-10.09.53-4.72-2.22-5.2-5.87-8.18-6.54-3.65-.84-8.27,5.95-11.14,5.3-3.71-.84-4.12-8.66-7.41-9.52-4.34-1.14-9.17,5.47-12.02,4.85-2.88-.57-3.95-8.93-6.66-9.63-4.57-1.16-9.21,5.76-12.09,5.17-2.88-.59-4.47-8.8-6.89-9.77-4.55-1.82-10.65,4.96-16.94,1.67-20.4-13.53-16.49-20.52-32.06-25.06-8.05-2.32-18.08.51-23.96,1.12-13.81,1.41-13.27-10.32-13.27-10.32,4.02.91,9.62,3.4,19.95-.36,11.14-4.07,17.37-4.79,31.93,0,12.26,4.05,19.56.42,23.85-.65,2.1-.55,3.74-1.67,7.71.82,3.97,2.49,7.77,5.24,9.73,4.29,3.01-1.46,1.93-9.37,7.13-11.04,2.36-.78,8.82,5.59,11.66,4.54,2.83-1.08,1.95-9.37,7.13-11.04,2.38-.76,8.85,5.59,11.68,4.54,2.86-1.1,1.95-9.37,7.13-11.06,2.38-.76,8.87,5.59,11.68,4.54,2.83-1.08,1.98-9.37,7.13-11.08,2.36-.76,8.87,5.62,11.66,4.56,2.83-1.1,2.43-3.21,4.7-8.84.45-1.1,1.27-2.22,2.43-3.15,3.16-2.55,7.94-7.98,5.13-14.1-2.55-5.51-7.84-5.34-19.41-3-9.75,1.98-70.23,15.05-70.23,15.05-9.45-17.16-15.82-5.83-29.84-7.49-8.87-1.06-23.21-9.94-45.9,10.66-12.2-3.42-22.97-.38-31,4.05-13.61-5.45-39.59-18.56-88.93-18.56-13.96,0-47.26,2.7-100.23,16.42-13.57,3.5-25.96,2.77-28.96-5.15-3.13-8.3,7.75-16.97,28.23-26.64,50.84-23.94,84.79-18.3,153.15-53.89,36.65-19.06,39.03-41.44,39.01-46.84,0-3.72-3.84-4.96-6.05-1.92-12.32,16.91-15.5,15.52-19.32,11.74-5.13-5.05-8.57,2.98-14.08,7.01-4.19,3.06-5.02-.63-8.42-2.77-5.78-3.67-10.65,7.18-15.63,9.37-5.75,2.53-6.81-.3-8.76-2.3-1.37-1.41-3.86-1.37-5.67.3-11.66,10.89-13.38,9.65-16.85,6.02-2.58-2.7-3.99-4.58-11.53,2.93-4.36,4.35-11.64,9.48-13.83,4.05-2.21-5.43-4.12-8.59-14.81,1.01-6.33,5.68-10.65,6.14-12.56,3.46-1.93-2.7-1.63-10.07-11.64-2.32-8.98,6.95-13.48,11.12-16.45,4.41-2.86-6.48-9.47-1.03-14.47,3.67-2.62,2.47-7,8.34-10.52,2.36-3.52-5.91-9.1.19-16.32,7.68-4.06,4.2-6.76,2.36-10.78-.44-4.62-3.25-9.49,8.36-16.21,15.33-1.27,1.16-3.09,1.98-7.13-.76-5.22-3.52-13.51,14.48-15.85,18.91-3.84,7.14-8.07-1.88-12.56,4.58-10.46,15.05-21.62,31.73-24.8,61.28-3.8,35.36,9.53,64.17,23.08,74.77,0,0-1.65,3.97-3.54,8.93-3.78,9.96-5.35,22.9-.49,31.98,4.7,8.76,15.7,23.35,19.77,9.58,1.98-6.69,3.84-6.33,10.41-1.77,9.9,6.86,7.47-5.64,9.45-9.35,1.4-2.6,3.11-3.61,11.25,1.69,4.68,3,6.2-1.08,7.6-6.78,4.29-17.63-4.16-21.95-12.54-23.62-6.1-1.2-12.5-.19-12.5-.19,13.33-19.99,14.99-30.9,0-41.04,2.23-1.1,4.06-.51,5.97.3,3.69,1.52,6.76,4.31,8.72,7.68,2.06,3.59,5.45,11.59-1.42,25.82,2.88,0,13.93.68,18.92,11.84,6.55,2.07,48.85,5.38,67.31,2.45,6.72-1.08,9.75-7.03,16.45-13.17,7.3-6.69,15.8-13.95,23.38-8.51-12.93,5.21-22.01,15.09-22.01,27.61,0,9.42,3.95,13.17,10.78,18.77,6.18,5.07,8.09,13.09,10.37,19.32,2.9,7.94,8.97,8.19,10.33.65,1.87-10.43,5.07-8.49,9.17-4.03,4.98,5.4,8.87,4.58,8.89-3.19,0-7.35,2.25-10.98,10.61-2.49,3.39,3.44,7.47,3.31,7.41-4.18-.09-9.16,4.1-8.3,9.34-4.37,1.82,1.37,3.07,2.34,4.06,2.3,4.12-.21,6.83-8.09,3.65-14.29-1.57-3.1-3.89-7.75-25.21-12.07-7-1.41-5.8-6.18-5.8-6.18,52.09,2.49,96.25-3.95,125.28-21.3,35.68,8.46,87.9,9.27,105.01,9.03,17.11-.19,30.21-.97,40.95-6.02,11.29-5.34,9.6-13.45,4.38-16.68"/>
</svg>